HIERARCHY
ROOT Hips
{
	OFFSET 0.00000 0.00000 0.00000
	CHANNELS 6 Xposition Yposition Zposition Zrotation Yrotation Xrotation 
	JOINT LHipJoint
	{
		OFFSET 0 0 0
		CHANNELS 3 Zrotation Yrotation Xrotation
		JOINT LeftHip
		{
			OFFSET 1.61024 -1.73873 0.75100
			CHANNELS 3 Zrotation Yrotation Xrotation
			JOINT LeftKnee
			{
				OFFSET 2.29819 -6.31424 0.00000
				CHANNELS 3 Zrotation Yrotation Xrotation
				JOINT LeftAnkle
				{
					OFFSET 2.76618 -7.60002 0.00000
					CHANNELS 3 Zrotation Yrotation Xrotation
					JOINT LeftToe
					{
						OFFSET 0.16838 -0.46263 2.02361
						CHANNELS 3 Zrotation Yrotation Xrotation
						End Site
						{
							OFFSET 0.00000 -0.00000 1.04662
						}
					}
				}
			}
		}
	}
	JOINT RHipJoint
	{
		OFFSET 0 0 0
		CHANNELS 3 Zrotation Yrotation Xrotation
		JOINT RightHip
		{
			OFFSET -1.46153 -1.73873 0.75100
			CHANNELS 3 Zrotation Yrotation Xrotation
			JOINT RightKnee
			{
				OFFSET -2.38373 -6.54924 0.00000
				CHANNELS 3 Zrotation Yrotation Xrotation
				JOINT RightAnkle
				{
					OFFSET -2.80314 -7.70157 0.00000
					CHANNELS 3 Zrotation Yrotation Xrotation
					JOINT RightToe
					{
						OFFSET -0.16142 -0.44349 2.02101
						CHANNELS 3 Zrotation Yrotation Xrotation
						End Site
						{
							OFFSET -0.00000 -0.00000 1.04381
						}
					}
				}
			}
		}
	}
	JOINT lowerback
	{
		OFFSET 0 0 0
		CHANNELS 3 Zrotation Yrotation Xrotation
		JOINT Chest
		{
			OFFSET -0.01629 1.66985 0.14750
			CHANNELS 3 Zrotation Yrotation Xrotation
			JOINT Chest2
			{
				OFFSET 0.02086 1.62378 0.20980
				CHANNELS 3 Zrotation Yrotation Xrotation
				JOINT lowerneck
				{
					OFFSET 0 0 0
					CHANNELS 3 Zrotation Yrotation Xrotation
					JOINT Neck
					{
						OFFSET -0.05690 1.78719 0.08702
						CHANNELS 3 Zrotation Yrotation Xrotation
						JOINT Head
						{
							OFFSET 0.16035 1.73871 -0.38470
							CHANNELS 3 Zrotation Yrotation Xrotation
							End Site
							{
								OFFSET 0.05645 1.80914 -0.14081
							}
						}
					}
				}
				JOINT LeftCollar
				{
					OFFSET 0 0 0
					CHANNELS 3 Zrotation Yrotation Xrotation
					JOINT LeftShoulder
					{
						OFFSET 2.83089 1.66494 -0.46008
CHANNELS 3 Zrotation Xrotation Yrotation
						JOINT LeftElbow
						{
OFFSET 0 -5.548930 -0.000000
CHANNELS 3 Zrotation Xrotation Yrotation
							JOINT LeftWrist
							{
OFFSET 0 -3.028980 -0.000000
CHANNELS 3 Zrotation Xrotation Yrotation
								JOINT lhand
								{
									OFFSET 0 0 0
CHANNELS 3 Zrotation Xrotation Yrotation
									JOINT LFingers
									{
OFFSET 0 -0.640950 -0.000000
CHANNELS 3 Zrotation Xrotation Yrotation
										End Site
										{
OFFSET 0 -0.516750 -0.000000
										}
									}
								}
								JOINT LThumb
								{
OFFSET 0 0.000000 0.000000
CHANNELS 3 Zrotation Xrotation Yrotation
									End Site
									{
OFFSET 0 -0.524640 0.524640
									}
								}
							}
						}
					}
				}
				JOINT RightCollar
				{
					OFFSET 0 0 0
					CHANNELS 3 Zrotation Yrotation Xrotation
					JOINT RightShoulder
					{
						OFFSET -2.84442 1.45761 -0.18088
CHANNELS 3 Zrotation Xrotation Yrotation
						JOINT RightElbow
						{
OFFSET 0 -5.351900 -0.000000
CHANNELS 3 Zrotation Xrotation Yrotation
							JOINT RightWrist
							{
OFFSET 0 -3.025310 -0.000000
CHANNELS 3 Zrotation Xrotation Yrotation
								JOINT rhand
								{
									OFFSET 0 0 0
CHANNELS 3 Zrotation Xrotation Yrotation
									JOINT RFingers
									{
OFFSET 0 -0.783890 -0.000000
CHANNELS 3 Zrotation Xrotation Yrotation
										End Site
										{
OFFSET 0 -0.631990 -0.000000
										}
									}
								}
								JOINT RThumb
								{
OFFSET 0 0.000000 0.000000
CHANNELS 3 Zrotation Xrotation Yrotation
									End Site
									{
OFFSET 0 -0.641640 0.641640
									}
								}
							}
						}
					}
				}
			}
		}
	}
}
MOTION
Frames: 9
Frame Time: 0.008333333333333333
-1.116804 17.394104 -1.503058 -1072.674257 64.633563 -1037.304257 0.000000 0.000000 0.000000 -20.152266 -20.637403 -48.162014 2.390222 9.635466 27.804121 -1.288377 22.991820 -21.673572 0.141052 -2.420172 -6.668342 0.000000 0.000000 0.000000 -23.167701 35.000574 -55.428697 -2.058532 -8.986846 25.754303 1.329395 -20.306173 -12.130287 -0.492827 4.500742 -12.490033 -13.211712 2.170065 12.589011 8.724691 1.824444 3.661076 17.338211 1.099019 -3.773509 -8.692946 -1.749683 -12.348279 -12.799839 0.421071 4.813536 -2.509715 -0.450015 3.535359 0.000000 0.000000 0.000000 -49.388974 -64.622781 -100.950519 102.110938 -59.438450 70.468558 0.100803 -38.895651 -34.830504 0.000000 0.000000 0.000000 -7.125000 0.000000 0.000000 -38.254061 60.536512 15.822287 0.000000 0.000000 0.000000 13.407964 -63.795945 50.977492 -120.946160 -56.052466 -86.444933 -22.976327 -28.802994 -11.654367 0.000000 0.000000 0.000000 7.125000 0.000000 0.000000 2.924498 17.362276 1.920972
-1.107906 17.415671 -1.348570 -1071.910000 63.787851 -1036.315326 0.000000 0.000000 0.000000 -20.513997 -20.266256 -47.724534 2.247407 9.363487 26.939165 -1.421568 23.523471 -21.361111 0.189996 -2.806576 -7.740849 0.000000 0.000000 0.000000 -23.621732 35.152440 -56.174660 -2.143580 -9.158960 26.293796 1.285132 -19.896767 -11.385914 -0.722861 5.425500 -15.128031 -14.751964 2.157111 12.485131 8.678240 1.607527 3.519329 18.341273 1.009549 -3.805302 -9.020888 -1.515300 -12.333974 -14.068055 0.921852 4.705656 -2.816042 -0.239076 3.533905 0.000000 0.000000 0.000000 -50.980897 -63.567254 -100.707473 102.716317 -59.380098 70.989649 6.777889 -33.791344 -30.827824 0.000000 0.000000 0.000000 -7.125000 0.000000 0.000000 -27.801542 58.752542 9.825787 0.000000 0.000000 0.000000 9.098874 -65.940213 49.080711 -117.841446 -56.858112 -83.857078 -17.280624 -30.645148 -10.918774 0.000000 0.000000 0.000000 7.125000 0.000000 0.000000 6.907394 18.604403 4.373868
-1.132953 17.425102 -1.169742 -1072.699115 63.828169 -1037.133372 0.000000 0.000000 0.000000 -19.141529 -20.400598 -47.624651 2.291359 9.448273 27.207966 -1.588702 24.363758 -21.469571 0.217235 -2.999981 -8.278790 0.000000 0.000000 0.000000 -22.668767 35.704606 -56.257678 -2.157534 -9.186810 26.381475 1.207038 -19.544644 -12.332599 -0.479775 4.431418 -12.295326 -14.989836 2.034053 12.808714 8.504104 1.358641 3.584897 18.323142 0.875470 -3.803998 -8.679848 -1.040024 -12.956868 -14.982454 1.726039 4.898091 -3.104938 0.086441 3.742591 0.000000 0.000000 0.000000 -51.672801 -63.208240 -100.429928 102.754593 -59.376290 71.022624 8.945766 -31.420733 -30.211697 0.000000 0.000000 0.000000 -7.125000 0.000000 0.000000 -25.113850 58.688041 8.754051 0.000000 0.000000 0.000000 5.837426 -67.978060 47.742770 -114.822759 -57.538384 -81.319414 -11.460835 -32.653341 -9.608179 0.000000 0.000000 0.000000 7.125000 0.000000 0.000000 11.051836 20.263025 6.663749
-1.161935 17.427131 -1.014235 -1072.597880 63.951692 -1036.743840 0.000000 0.000000 0.000000 -17.757575 -21.397934 -47.705489 2.310408 9.484800 27.323941 -1.708383 25.249393 -22.385285 0.201906 -2.893009 -7.981014 0.000000 0.000000 0.000000 -21.794258 35.237950 -56.771061 -2.216123 -9.302384 26.745926 1.070134 -18.500478 -11.834295 -0.635584 5.098230 -14.189568 -15.167300 1.631233 12.958971 8.195641 0.738721 3.368354 18.161387 0.576206 -3.866319 -8.493396 -0.449933 -12.566113 -16.034772 2.411978 4.084271 -3.402375 0.478761 3.477673 0.000000 0.000000 0.000000 -51.229859 -63.160771 -99.249918 103.278224 -59.323194 71.473161 13.005819 -28.272587 -29.586778 0.000000 0.000000 0.000000 -7.125000 0.000000 0.000000 -20.466367 59.021927 7.201779 0.000000 0.000000 0.000000 3.019706 -69.537019 47.740757 -110.865556 -58.289159 -77.966268 -6.536471 -34.757208 -9.968231 0.000000 0.000000 0.000000 7.125000 0.000000 0.000000 14.491468 20.089522 8.918615
-1.194854 17.467750 -0.775622 -1074.245826 63.533503 -1038.355175 0.000000 0.000000 0.000000 -16.123079 -21.081301 -47.115736 2.247631 9.363839 26.940280 -1.926216 26.329802 -22.759632 0.192981 -2.827586 -7.799156 0.000000 0.000000 0.000000 -20.241315 36.072256 -56.679859 -2.184910 -9.241066 26.552373 0.976227 -17.886667 -12.118559 -0.417195 4.145750 -11.487229 -16.438471 1.892028 12.811720 8.193661 0.941237 3.580098 18.786128 0.646047 -3.671724 -8.541204 0.226229 -12.939311 -16.827961 3.492162 4.148864 -3.567720 0.961097 3.631978 0.000000 0.000000 0.000000 -52.549617 -62.126557 -99.373779 104.008601 -59.245371 72.101030 19.720460 -22.750077 -27.732938 0.000000 0.000000 0.000000 -7.125000 0.000000 0.000000 -12.133869 58.750464 4.117405 0.000000 0.000000 0.000000 -4.528156 -71.752408 44.263301 -106.567454 -58.936841 -74.296567 -1.572706 -37.617590 -10.526026 0.000000 0.000000 0.000000 7.125000 0.000000 0.000000 17.862303 19.671840 11.367639
-1.234528 17.491168 -0.550546 -1075.491419 63.685035 -1039.450150 0.000000 0.000000 0.000000 -14.255868 -21.339139 -47.028127 2.296131 9.457512 27.237095 -1.914260 26.842129 -24.291959 0.113019 -2.167114 -5.967705 0.000000 0.000000 0.000000 -18.195940 36.096725 -56.735315 -2.204047 -9.278782 26.671516 0.861306 -16.922506 -11.712743 -0.439219 4.252473 -11.788149 -16.964002 1.902190 12.682575 8.101729 0.882330 3.622793 18.455947 0.597299 -3.649090 -8.248525 0.951450 -13.799960 -17.664976 4.725817 4.556060 -3.784847 1.459286 4.000406 0.000000 0.000000 0.000000 -53.547426 -60.491440 -99.226899 104.376560 -59.204409 72.417191 24.346095 -16.359029 -26.885183 0.000000 0.000000 0.000000 -7.125000 0.000000 0.000000 -6.616650 58.953781 2.262535 0.000000 0.000000 0.000000 -16.306811 -73.691347 37.766295 -102.364700 -59.414225 -70.687080 3.652787 -40.852923 -9.638945 0.000000 0.000000 0.000000 7.125000 0.000000 0.000000 21.499171 20.540953 13.562159
-1.268479 17.500279 -0.305064 -1076.789399 63.744344 -1040.823673 0.000000 0.000000 0.000000 -12.460139 -21.536869 -46.592796 2.339352 9.539768 27.498770 -2.208964 28.136371 -24.649172 0.190125 -2.806005 -7.739255 0.000000 0.000000 0.000000 -15.511290 35.834113 -56.495603 -2.236001 -9.341312 26.869030 0.702351 -15.459990 -11.066559 -0.518671 4.615945 -12.816417 -17.858611 2.000754 12.524080 7.672650 0.888749 3.634729 18.461198 0.582671 -3.536310 -8.312467 1.360334 -13.849958 -17.805840 5.306398 4.499725 -3.772034 1.739920 4.026581 0.000000 0.000000 0.000000 -54.622611 -58.638673 -98.398329 104.824403 -59.153119 72.801826 30.277018 -10.243512 -26.204686 0.000000 0.000000 0.000000 -7.125000 0.000000 0.000000 0.447143 59.658441 -0.160644 0.000000 0.000000 0.000000 -27.538973 -74.822667 32.510094 -97.135564 -59.806734 -66.175554 7.178455 -43.924087 -11.179916 0.000000 0.000000 0.000000 7.125000 0.000000 0.000000 23.576457 19.078402 15.979782
-1.311608 17.523153 -0.032099 -1078.272287 63.957074 -1042.323973 0.000000 0.000000 0.000000 -10.522752 -21.434962 -46.193130 2.360367 9.579390 27.625232 -2.197776 28.519440 -25.809910 0.136344 -2.370985 -6.532391 0.000000 0.000000 0.000000 -12.792409 35.860630 -56.093390 -2.251852 -9.372059 26.966427 0.590313 -14.373887 -10.736884 -0.509080 4.573179 -12.695252 -18.958342 2.184800 12.317464 7.368868 1.009577 3.688032 18.718786 0.623721 -3.409657 -8.700042 1.955269 -14.143960 -17.967286 6.271535 4.572969 -3.682491 2.180078 4.148738 0.000000 0.000000 0.000000 -55.408239 -56.444974 -96.337773 106.257089 -58.977423 74.030684 38.326456 -3.460557 -25.752786 0.000000 0.000000 0.000000 -7.125000 0.000000 0.000000 10.528763 61.262615 -4.197036 0.000000 0.000000 0.000000 -39.066385 -75.434999 27.842895 -94.202095 -59.933129 -63.638278 8.244108 -47.858005 -9.813931 0.000000 0.000000 0.000000 7.125000 0.000000 0.000000 24.484849 20.316261 15.964977
-1.349016 17.538708 0.239065 -1079.462354 65.325493 -1043.817880 0.000000 0.000000 0.000000 -8.100985 -22.642719 -45.251468 2.371518 9.600426 27.692200 -2.528867 29.862685 -26.221084 0.197466 -2.854441 -7.874230 0.000000 0.000000 0.000000 -9.342738 35.176549 -55.098684 -2.297147 -9.459318 27.243014 0.493187 -13.449874 -10.727307 -0.482994 4.456381 -12.364238 -18.797771 2.050115 12.605737 6.533283 0.764015 3.761852 18.025862 0.477099 -3.274736 -7.724973 2.774485 -14.534389 -18.308032 7.270777 4.507704 -3.850321 2.649455 4.292230 0.000000 0.000000 0.000000 -55.109486 -54.807413 -93.612364 108.657817 -58.642802 76.084471 39.898604 -2.248643 -26.948143 0.000000 0.000000 0.000000 -7.125000 0.000000 0.000000 12.591052 63.081287 -5.571323 0.000000 0.000000 0.000000 -46.047634 -76.123541 25.955426 -92.784567 -59.970605 -62.411247 10.869957 -49.400652 -9.027508 0.000000 0.000000 0.000000 7.125000 0.000000 0.000000 26.305670 20.956333 17.012612
